<svg width="992.1" height="68.503" viewBox="0 0 992.1 68.503"><g id="svgGroup" stroke-linecap="round" fill-rule="evenodd" font-size="9pt" stroke="#000" stroke-width="0.25mm" fill="none" style="stroke:#000;stroke-width:0.25mm;fill:none"><path d="M 9.4 67.102 L 9.4 64.202 L 48 64.202 L 48 13.402 L 25.5 35.902 L 3 13.402 L 3 67.202 L 0 67.102 L 0 9.202 L 3 9.202 L 25.5 31.702 L 48 9.202 L 51 9.202 L 51 67.202 L 9.4 67.102 Z" id="0" vector-effect="non-scaling-stroke"/><path d="M 75.3 67.202 L 75.3 64.202 L 107.9 64.202 L 87.4 15.902 L 65.6 67.202 L 62.4 67.202 L 87.4 8.202 L 112.4 67.202 L 75.3 67.202 Z" id="1" vector-effect="non-scaling-stroke"/><path d="M 116.3 9.202 L 161.3 9.202 L 161.3 12.202 L 140.3 12.202 L 140.3 67.202 L 137.3 67.202 L 137.3 12.202 L 116.3 12.202 L 116.3 9.202 Z" id="2" vector-effect="non-scaling-stroke"/><path d="M 165.3 9.202 L 210.3 9.202 L 210.3 12.202 L 189.3 12.202 L 189.3 67.202 L 186.3 67.202 L 186.3 12.202 L 165.3 12.202 L 165.3 9.202 Z" id="3" vector-effect="non-scaling-stroke"/><path d="M 257.8 9.202 L 257.8 67.202 L 254.8 67.202 L 254.8 38.202 L 224.8 38.202 L 224.8 67.202 L 221.8 67.202 L 221.8 9.202 L 224.8 9.202 L 224.8 35.202 L 254.8 35.202 L 254.8 9.202 L 257.8 9.202 Z" id="4" vector-effect="non-scaling-stroke"/><path d="M 313.4 59.302 L 315.6 61.302 A 16.87 16.87 0 0 1 307.781 66.686 Q 304.945 67.681 301.447 68.023 A 39.564 39.564 0 0 1 297.6 68.202 A 34.698 34.698 0 0 1 291.13 67.641 Q 287.474 66.945 284.678 65.39 A 15.862 15.862 0 0 1 279.7 61.102 A 21.406 21.406 0 0 1 276.626 55.193 Q 274.618 49.476 274.343 40.967 A 85.799 85.799 0 0 1 274.3 38.202 A 73.332 73.332 0 0 1 274.704 30.212 Q 275.777 20.461 279.7 15.302 Q 285.1 8.202 297.6 8.202 A 34.381 34.381 0 0 1 304.647 8.873 Q 313.481 10.726 317.3 17.702 L 292.8 38.202 L 288.1 38.202 L 313.4 17.102 A 12.993 12.993 0 0 0 307.737 12.867 Q 305.457 11.937 302.562 11.527 A 35.43 35.43 0 0 0 297.6 11.202 A 39.637 39.637 0 0 0 294.075 11.35 Q 292.356 11.504 290.882 11.818 A 19.381 19.381 0 0 0 289.2 12.252 A 14.367 14.367 0 0 0 284.503 14.765 A 17.99 17.99 0 0 0 282.95 16.152 A 13.398 13.398 0 0 0 280.734 19.144 Q 279.916 20.616 279.296 22.442 A 27.619 27.619 0 0 0 278.7 24.452 Q 277.683 28.412 277.405 33.876 A 85.233 85.233 0 0 0 277.3 38.202 Q 277.3 46.502 278.7 51.952 A 25.336 25.336 0 0 0 279.834 55.392 Q 280.574 57.167 281.533 58.548 A 12.463 12.463 0 0 0 282.95 60.252 Q 285.8 63.102 289.2 64.152 Q 292.6 65.202 297.6 65.202 Q 304.029 65.202 308.232 63.326 A 12.8 12.8 0 0 0 313.4 59.302 Z" id="5" vector-effect="non-scaling-stroke"/><path d="M 323.9 9.202 L 327.1 9.202 L 348.9 60.502 L 364 25.002 L 379 60.502 L 399.5 12.202 L 335 12.202 L 335 9.202 L 404 9.202 L 379 68.202 L 364 32.702 L 348.9 68.202 L 323.9 9.202 Z" id="6" vector-effect="non-scaling-stroke"/><path d="M 461.1 42.802 L 451 42.802 A 26.994 26.994 0 0 1 446.193 42.413 Q 437.6 40.85 437.6 33.002 A 11.222 11.222 0 0 1 437.878 30.419 Q 438.491 27.83 440.45 26.352 A 10.659 10.659 0 0 1 446.241 24.236 A 13.475 13.475 0 0 1 447.2 24.202 A 12.932 12.932 0 0 1 453.675 25.972 A 16.816 16.816 0 0 1 455.4 27.102 Q 455.4 18.002 450.2 10.502 A 21.521 21.521 0 0 0 446.747 6.557 A 13.502 13.502 0 0 0 437.6 3.002 A 18.755 18.755 0 0 0 423.367 9.332 A 26.282 26.282 0 0 0 421.9 11.052 A 27.992 27.992 0 0 0 416.984 21.143 Q 415.6 26.274 415.6 32.602 Q 415.6 47.902 421.65 56.552 Q 427.7 65.202 438.8 65.202 Q 445.3 65.202 451.15 62.002 A 29.177 29.177 0 0 0 460.581 53.717 A 33.945 33.945 0 0 0 461.1 53.002 L 463.6 54.702 Q 459.1 61.102 452.55 64.652 Q 446 68.202 438.8 68.202 Q 426.2 68.202 419.4 58.602 Q 412.6 49.002 412.6 32.602 A 48.977 48.977 0 0 1 413.557 22.635 Q 415.207 14.698 419.7 9.002 A 24.907 24.907 0 0 1 426.079 3.175 A 21.386 21.386 0 0 1 437.6 0.002 A 16.719 16.719 0 0 1 450.115 5.548 A 25.468 25.468 0 0 1 452.45 8.402 Q 458.4 16.802 458.4 27.102 L 458.4 33.102 L 453.6 29.502 A 14.941 14.941 0 0 0 451.166 28.106 Q 449.144 27.202 447.2 27.202 A 10.931 10.931 0 0 0 444.709 27.46 Q 440.6 28.426 440.6 33.002 Q 440.6 39.802 451 39.802 L 461.1 39.802 L 461.1 42.802 Z" id="7" vector-effect="non-scaling-stroke"/><path d="M 514.5 9.202 L 514.5 67.202 L 511.5 67.202 L 511.5 38.202 L 481.5 38.202 L 481.5 67.202 L 478.5 67.202 L 478.5 9.202 L 481.5 9.202 L 481.5 35.202 L 511.5 35.202 L 511.5 9.202 L 514.5 9.202 Z" id="8" vector-effect="non-scaling-stroke"/><path d="M 532.5 9.202 L 535.5 9.202 L 535.5 38.202 A 74.297 74.297 0 0 0 535.797 45.099 Q 536.465 52.233 538.634 56.57 A 15.132 15.132 0 0 0 540.25 59.152 Q 545 65.202 553.3 65.202 A 18.273 18.273 0 0 0 559.243 64.279 A 15.129 15.129 0 0 0 566.35 59.152 A 17.208 17.208 0 0 0 568.906 54.368 Q 571.1 48.33 571.1 38.202 L 571.1 9.202 L 574.1 9.202 L 574.1 38.202 Q 574.1 68.202 553.3 68.202 A 19.994 19.994 0 0 1 543.013 65.696 Q 534.943 60.963 533.068 47.297 A 67.158 67.158 0 0 1 532.5 38.202 L 532.5 9.202 Z" id="9" vector-effect="non-scaling-stroke"/><path d="M 599.7 67.202 L 592.1 67.202 L 592.1 9.202 L 599.7 9.202 Q 614.5 9.202 623.3 17.002 Q 632.1 24.802 632.1 38.202 Q 632.1 51.602 623.3 59.402 A 29.865 29.865 0 0 1 610.347 66.012 Q 605.785 67.128 600.419 67.198 A 55.338 55.338 0 0 1 599.7 67.202 Z M 595.1 64.202 L 599.7 64.202 A 42.747 42.747 0 0 0 608.596 63.33 Q 614.169 62.145 618.444 59.347 A 25.056 25.056 0 0 0 621.15 57.302 A 22.57 22.57 0 0 0 628.72 43.286 A 32.662 32.662 0 0 0 629.1 38.202 Q 629.1 26.002 621.15 19.102 A 26.946 26.946 0 0 0 610.103 13.43 Q 605.395 12.202 599.7 12.202 L 595.1 12.202 L 595.1 64.202 Z" id="10" vector-effect="non-scaling-stroke"/><path d="M 680.3 13.502 L 678.3 15.702 A 14.46 14.46 0 0 0 673.141 12.531 Q 670.894 11.695 668.101 11.316 A 37.287 37.287 0 0 0 663.1 11.002 A 28.804 28.804 0 0 0 657.406 11.514 Q 648.576 13.303 647.617 21.348 A 17.354 17.354 0 0 0 647.5 23.402 A 9.736 9.736 0 0 0 648.254 27.291 Q 649.156 29.386 651.137 30.928 A 11.603 11.603 0 0 0 651.3 31.052 A 24.593 24.593 0 0 0 656.394 33.961 A 32.299 32.299 0 0 0 660.55 35.402 Q 666 36.902 671.45 38.552 A 23.488 23.488 0 0 1 678.029 41.672 A 21.329 21.329 0 0 1 680.7 43.852 A 12.201 12.201 0 0 1 684.407 51.613 A 16.808 16.808 0 0 1 684.5 53.402 Q 684.5 59.959 679.354 63.987 A 17.06 17.06 0 0 1 678.8 64.402 A 19.036 19.036 0 0 1 673.342 67.052 Q 670.78 67.856 667.663 68.215 A 47.07 47.07 0 0 1 662.3 68.502 Q 657 68.502 651.85 67.102 Q 648.268 66.128 645.968 64.526 A 10.848 10.848 0 0 1 644.2 63.002 L 646.2 60.802 A 15.694 15.694 0 0 0 651.657 63.994 Q 654.041 64.843 656.984 65.214 A 39.371 39.371 0 0 0 661.9 65.502 A 41.887 41.887 0 0 0 667.241 65.185 Q 669.927 64.839 672.115 64.114 A 16.075 16.075 0 0 0 676.55 61.902 A 15.203 15.203 0 0 0 679.107 59.597 Q 681.5 56.84 681.5 53.502 A 10.639 10.639 0 0 0 680.679 49.264 A 10.105 10.105 0 0 0 677.7 45.402 A 23.597 23.597 0 0 0 672.002 42.001 A 29.871 29.871 0 0 0 668.45 40.752 Q 663 39.202 657.55 37.552 Q 652.1 35.902 648.3 32.402 Q 644.5 28.902 644.5 23.202 A 18.215 18.215 0 0 1 645.028 18.675 A 11.95 11.95 0 0 1 649.65 11.752 A 18.967 18.967 0 0 1 656.841 8.598 Q 659.531 8.007 662.651 8.002 A 33.172 33.172 0 0 1 662.7 8.002 A 44.201 44.201 0 0 1 668.779 8.39 Q 675.908 9.383 679.71 12.917 A 12.871 12.871 0 0 1 680.3 13.502 Z" id="11" vector-effect="non-scaling-stroke"/><path d="M 737.8 61.102 Q 732.4 68.202 719.9 68.202 A 34.698 34.698 0 0 1 713.43 67.641 Q 709.774 66.945 706.978 65.39 A 15.862 15.862 0 0 1 702 61.102 A 21.406 21.406 0 0 1 698.926 55.193 Q 696.918 49.476 696.643 40.967 A 85.799 85.799 0 0 1 696.6 38.202 A 73.332 73.332 0 0 1 697.004 30.212 Q 698.077 20.461 702 15.302 Q 707.4 8.202 719.9 8.202 A 34.698 34.698 0 0 1 726.37 8.764 Q 730.026 9.459 732.822 11.015 A 15.862 15.862 0 0 1 737.8 15.302 A 21.406 21.406 0 0 1 740.874 21.211 Q 742.882 26.928 743.157 35.437 A 85.799 85.799 0 0 1 743.2 38.202 A 73.332 73.332 0 0 1 742.796 46.192 Q 741.723 55.944 737.8 61.102 Z M 728.3 12.252 Q 724.9 11.202 719.9 11.202 A 39.637 39.637 0 0 0 716.375 11.35 Q 714.656 11.504 713.182 11.818 A 19.381 19.381 0 0 0 711.5 12.252 A 14.367 14.367 0 0 0 706.803 14.765 A 17.99 17.99 0 0 0 705.25 16.152 A 13.398 13.398 0 0 0 703.034 19.144 Q 702.216 20.616 701.596 22.442 A 27.619 27.619 0 0 0 701 24.452 Q 699.983 28.412 699.705 33.876 A 85.233 85.233 0 0 0 699.6 38.202 Q 699.6 46.502 701 51.952 A 25.336 25.336 0 0 0 702.134 55.392 Q 702.874 57.167 703.833 58.548 A 12.463 12.463 0 0 0 705.25 60.252 Q 708.1 63.102 711.5 64.152 Q 714.9 65.202 719.9 65.202 A 39.637 39.637 0 0 0 723.425 65.055 Q 725.144 64.901 726.618 64.587 A 19.381 19.381 0 0 0 728.3 64.152 A 14.367 14.367 0 0 0 732.997 61.639 A 17.99 17.99 0 0 0 734.55 60.252 A 13.398 13.398 0 0 0 736.766 57.261 Q 737.584 55.789 738.204 53.963 A 27.619 27.619 0 0 0 738.8 51.952 Q 739.817 47.992 740.095 42.528 A 85.233 85.233 0 0 0 740.2 38.202 Q 740.2 29.902 738.8 24.452 A 25.336 25.336 0 0 0 737.666 21.013 Q 736.926 19.237 735.967 17.857 A 12.463 12.463 0 0 0 734.55 16.152 Q 731.7 13.302 728.3 12.252 Z" id="12" vector-effect="non-scaling-stroke"/><path d="M 762.7 67.202 L 759.7 67.202 L 759.7 9.202 L 762.7 9.202 L 795.3 61.702 L 795.3 9.202 L 798.3 9.202 L 798.3 67.202 L 795.3 67.202 L 762.7 14.602 L 762.7 67.202 Z" id="13" vector-effect="non-scaling-stroke"/><path d="M 815.7 67.202 L 815.7 61.402 L 822.3 61.402 L 822.3 67.202 L 815.7 67.202 Z" id="14" vector-effect="non-scaling-stroke"/><path d="M 847.3 67.202 L 839.7 67.202 L 839.7 9.202 L 847.3 9.202 Q 862.1 9.202 870.9 17.002 Q 879.7 24.802 879.7 38.202 Q 879.7 51.602 870.9 59.402 A 29.865 29.865 0 0 1 857.947 66.012 Q 853.385 67.128 848.019 67.198 A 55.338 55.338 0 0 1 847.3 67.202 Z M 842.7 64.202 L 847.3 64.202 A 42.747 42.747 0 0 0 856.196 63.33 Q 861.769 62.145 866.044 59.347 A 25.056 25.056 0 0 0 868.75 57.302 A 22.57 22.57 0 0 0 876.32 43.286 A 32.662 32.662 0 0 0 876.7 38.202 Q 876.7 26.002 868.75 19.102 A 26.946 26.946 0 0 0 857.703 13.43 Q 852.995 12.202 847.3 12.202 L 842.7 12.202 L 842.7 64.202 Z" id="15" vector-effect="non-scaling-stroke"/><path d="M 931.6 59.302 L 933.8 61.302 A 16.87 16.87 0 0 1 925.981 66.686 Q 923.145 67.681 919.647 68.023 A 39.564 39.564 0 0 1 915.8 68.202 A 34.698 34.698 0 0 1 909.33 67.641 Q 905.674 66.945 902.878 65.39 A 15.862 15.862 0 0 1 897.9 61.102 A 21.406 21.406 0 0 1 894.826 55.193 Q 892.818 49.476 892.543 40.967 A 85.799 85.799 0 0 1 892.5 38.202 A 73.332 73.332 0 0 1 892.904 30.212 Q 893.977 20.461 897.9 15.302 Q 903.3 8.202 915.8 8.202 A 34.381 34.381 0 0 1 922.847 8.873 Q 931.681 10.726 935.5 17.702 L 911 38.202 L 906.3 38.202 L 931.6 17.102 A 12.993 12.993 0 0 0 925.937 12.867 Q 923.657 11.937 920.762 11.527 A 35.43 35.43 0 0 0 915.8 11.202 A 39.637 39.637 0 0 0 912.275 11.35 Q 910.556 11.504 909.082 11.818 A 19.381 19.381 0 0 0 907.4 12.252 A 14.367 14.367 0 0 0 902.703 14.765 A 17.99 17.99 0 0 0 901.15 16.152 A 13.398 13.398 0 0 0 898.934 19.144 Q 898.116 20.616 897.496 22.442 A 27.619 27.619 0 0 0 896.9 24.452 Q 895.883 28.412 895.605 33.876 A 85.233 85.233 0 0 0 895.5 38.202 Q 895.5 46.502 896.9 51.952 A 25.336 25.336 0 0 0 898.034 55.392 Q 898.774 57.167 899.733 58.548 A 12.463 12.463 0 0 0 901.15 60.252 Q 904 63.102 907.4 64.152 Q 910.8 65.202 915.8 65.202 Q 922.229 65.202 926.432 63.326 A 12.8 12.8 0 0 0 931.6 59.302 Z" id="16" vector-effect="non-scaling-stroke"/><path d="M 988.9 9.202 L 992.1 9.202 L 967.1 68.202 L 942.1 9.202 L 945.3 9.202 L 967.1 60.502 L 988.9 9.202 Z" id="17" vector-effect="non-scaling-stroke"/></g></svg>
