<svg xmlns="http://www.w3.org/2000/svg" xmlns:xlink="http://www.w3.org/1999/xlink" width="100" height="100" viewBox="0 0 100 100"><g><g transform="translate(50 50) scale(0.69 0.69) rotate(0) translate(-50 -50)" style="fill:#FFFFFF"><svg fill="#FFFFFF" xmlns="http://www.w3.org/2000/svg" viewBox="0 0 20 20" x="0px" y="0px"><path fill="#FFFFFF" fill-rule="evenodd" d="M225.010982,1100.88966 L239.110339,1114.98902 L238.071641,1116.04956 L237.071068,1117.07107 C233.165825,1120.97631 226.834175,1120.97631 222.928932,1117.07107 C219.023689,1113.16582 219.023689,1106.83418 222.940028,1102.91795 L225.010982,1100.88966 Z M224.989956,1105.11128 C222.316732,1107.84949 222.336831,1112.23633 225.050253,1114.94975 C227.767296,1117.66679 232.162226,1117.68332 234.888898,1115.01022 L224.989956,1105.11128 Z M234,1103 C234,1101.34315 235.343146,1100 237,1100 C238.656854,1100 240,1101.34315 240,1103 C240,1104.65685 238.656854,1106 237,1106 C235.343146,1106 234,1104.65685 234,1103 Z" transform="translate(-220 -1100)"></path></svg></g></g></svg>