<svg xmlns="http://www.w3.org/2000/svg" xmlns:xlink="http://www.w3.org/1999/xlink" width="100" height="100" viewBox="0 0 100 100"><g><g transform="translate(50 50) scale(0.69 0.69) rotate(0) translate(-50 -50)" style="fill:#1A1A1A"><svg fill="#1A1A1A" xmlns="http://www.w3.org/2000/svg" viewBox="0 0 20 20" x="0px" y="0px"><path fill="#1A1A1A" fill-rule="evenodd" d="M220,930 C220,924.477153 224.477153,920 230,920 C235.522847,920 240,924.477153 240,930 C240,935.522847 235.522847,940 230,940 C224.477153,940 220,935.522847 220,930 Z M223,930 C223,933.865993 226.134007,937 230,937 C233.865993,937 237,933.865993 237,930 C237,926.134007 233.865993,923 230,923 C226.134007,923 223,926.134007 223,930 Z M227,932 L233,932 C233,933.656854 231.656854,935 230,935 C228.343146,935 227,933.656854 227,932 Z M229,928.5 L225,928.5 C225,927.395431 225.895431,926.5 227,926.5 C228.104569,926.5 229,927.395431 229,928.5 Z M235,928.5 L231,928.5 C231,927.395431 231.895431,926.5 233,926.5 C234.104569,926.5 235,927.395431 235,928.5 Z" transform="translate(-220 -920)"></path></svg></g></g></svg>