<svg xmlns="http://www.w3.org/2000/svg" xmlns:xlink="http://www.w3.org/1999/xlink" width="100" height="100" viewBox="0 0 100 100"><g><g transform="translate(50 50) scale(0.69 0.69) rotate(0) translate(-50 -50)" style="fill:#1A1A1A"><svg fill="#1A1A1A" xmlns="http://www.w3.org/2000/svg" viewBox="0 0 20 20" x="0px" y="0px"><path fill-rule="evenodd" d="M110,2500 C104.477153,2500 100,2495.52285 100,2490 C100,2484.47715 104.477153,2480 110,2480 C115.522847,2480 120,2484.47715 120,2490 C120,2495.52285 115.522847,2500 110,2500 Z M103.310539,2492.06814 L103.310539,2492.06814 L108,2487.37868 L115.250709,2494.62939 C116.339423,2493.39551 117,2491.7749 117,2490 C117,2486.13401 113.865993,2483 110,2483 C106.134007,2483 103,2486.13401 103,2490 C103,2490.71994 103.108684,2491.41449 103.310539,2492.06814 Z M104.864513,2494.75681 C106.143043,2496.13646 107.970677,2497 110,2497 C110.994528,2497 111.940615,2496.7926 112.797368,2496.41869 L108,2491.62132 L104.864513,2494.75681 L104.864513,2494.75681 Z M112.5,2488 C111.671573,2488 111,2487.32843 111,2486.5 C111,2485.67157 111.671573,2485 112.5,2485 C113.328427,2485 114,2485.67157 114,2486.5 C114,2487.32843 113.328427,2488 112.5,2488 Z" transform="translate(-100 -2480)"></path></svg></g></g></svg>