<svg xmlns="http://www.w3.org/2000/svg" xmlns:xlink="http://www.w3.org/1999/xlink" width="100" height="100" viewBox="0 0 100 100"><g><g transform="translate(50 50) scale(0.69 0.69) rotate(0) translate(-50 -50)" style="fill:#1A1A1A"><svg fill="#1A1A1A" xmlns="http://www.w3.org/2000/svg" viewBox="0 0 20 20" x="0px" y="0px"><path fill="#1A1A1A" fill-rule="evenodd" d="M160,930 C160,924.477153 164.477153,920 170,920 C175.522847,920 180,924.477153 180,930 C180,935.522847 175.522847,940 170,940 C164.477153,940 160,935.522847 160,930 Z M163,930 C163,933.865993 166.134007,937 170,937 C173.865993,937 177,933.865993 177,930 C177,926.134007 173.865993,923 170,923 C166.134007,923 163,926.134007 163,930 Z M167,934.5 C167,932.843146 168.343146,931.5 170,931.5 C171.656854,931.5 173,932.843146 173,934.5 L167,934.5 Z M169,927.5 C169,928.604569 168.104569,929.5 167,929.5 C165.895431,929.5 165,928.604569 165,927.5 L169,927.5 Z M175,927.5 C175,928.604569 174.104569,929.5 173,929.5 C171.895431,929.5 171,928.604569 171,927.5 L175,927.5 Z" transform="translate(-160 -920)"></path></svg></g></g></svg>