<svg xmlns="http://www.w3.org/2000/svg" xmlns:xlink="http://www.w3.org/1999/xlink" width="100" height="100" viewBox="0 0 100 100"><g><g transform="translate(50 50) scale(0.69 0.69) rotate(0) translate(-50 -50)" style="fill:#1A1A1A"><svg fill="#1A1A1A" xmlns="http://www.w3.org/2000/svg" viewBox="0 0 18 20" x="0px" y="0px"><path fill="#1A1A1A" fill-rule="evenodd" d="M287.408135,1833.19417 C286.738218,1833.70002 285.904141,1834 285,1834 C282.790861,1834 281,1832.20914 281,1830 C281,1827.79086 282.790861,1826 285,1826 C285.904141,1826 286.738218,1826.29998 287.408135,1826.80583 L291.048054,1824.62188 C291.01642,1824.41923 291,1824.21153 291,1824 C291,1821.79086 292.790861,1820 295,1820 C297.209139,1820 299,1821.79086 299,1824 C299,1826.20914 297.209139,1828 295,1828 C294.095859,1828 293.261782,1827.70002 292.591865,1827.19417 L288.951946,1829.37812 C288.98358,1829.58077 289,1829.78847 289,1830 C289,1830.21153 288.98358,1830.41923 288.951946,1830.62188 L292.591865,1832.80583 C293.261782,1832.29998 294.095859,1832 295,1832 C297.209139,1832 299,1833.79086 299,1836 C299,1838.20914 297.209139,1840 295,1840 C292.790861,1840 291,1838.20914 291,1836 C291,1835.78847 291.01642,1835.58077 291.048054,1835.37812 L287.408135,1833.19417 L287.408135,1833.19417 Z M294,1824 C294,1824.55228 294.447715,1825 295,1825 C295.552285,1825 296,1824.55228 296,1824 C296,1823.44772 295.552285,1823 295,1823 C294.447715,1823 294,1823.44772 294,1824 Z M284,1830 C284,1830.55228 284.447715,1831 285,1831 C285.552285,1831 286,1830.55228 286,1830 C286,1829.44772 285.552285,1829 285,1829 C284.447715,1829 284,1829.44772 284,1830 Z M294,1836 C294,1836.55228 294.447715,1837 295,1837 C295.552285,1837 296,1836.55228 296,1836 C296,1835.44772 295.552285,1835 295,1835 C294.447715,1835 294,1835.44772 294,1836 Z" transform="translate(-281 -1820)"></path></svg></g></g></svg>