<svg xmlns="http://www.w3.org/2000/svg" xmlns:xlink="http://www.w3.org/1999/xlink" width="100" height="100" viewBox="0 0 100 100"><g><g transform="translate(50 50) scale(0.69 0.69) rotate(0) translate(-50 -50)" style="fill:#1A1A1A"><svg fill="#1A1A1A" xmlns="http://www.w3.org/2000/svg" viewBox="0 0 21 20" x="0px" y="0px"><path fill="#1A1A1A" fill-rule="evenodd" d="M358.589241,1102.32979 C361.13692,1104.79599 361.13692,1108.81532 358.585382,1111.28525 L350.471075,1119.08407 L342.410759,1111.28153 C339.86308,1108.81532 339.86308,1104.79599 342.410759,1102.32979 C344.614125,1100.19689 347.999368,1099.92866 350.5,1101.52509 C353.000632,1099.92866 356.385875,1100.19689 358.589241,1102.32979 Z M356.502668,1109.12602 C357.832444,1107.83877 357.832444,1105.77255 356.502668,1104.4853 C355.145535,1103.17157 352.92562,1103.17157 351.564629,1104.48902 L350.496185,1105.51592 L349.431513,1104.4853 C348.07438,1103.17157 345.854465,1103.17157 344.497332,1104.4853 C343.167556,1105.77255 343.167556,1107.83877 344.497332,1109.12602 L350.478525,1114.91593 L356.502668,1109.12602 Z" transform="translate(-340 -1100)"></path></svg></g></g></svg>