<svg width="549.6" height="72.002" viewBox="0 0 549.6 72.002"><g id="svgGroup" stroke-linecap="round" fill-rule="evenodd" font-size="9pt" stroke="#000" stroke-width="0.25mm" fill="none" style="stroke:#000;stroke-width:0.25mm;fill:none"><path d="M 42 1.001 L 42 71.001 L 39 71.001 L 39 36.001 L 3 36.001 L 3 71.001 L 0 71.001 L 0 1.001 L 3 1.001 L 3 33.001 L 39 33.001 L 39 1.001 L 42 1.001 Z" id="0" vector-effect="non-scaling-stroke"/><path d="M 69.2 4.001 L 69.2 1.001 L 107.5 1.001 L 107.5 40.901 Q 107.5 55.514 102.912 63.079 A 19.526 19.526 0 0 1 102 64.451 Q 96.887 71.47 85.896 71.964 A 37.814 37.814 0 0 1 84.2 72.001 A 31.499 31.499 0 0 1 77.496 71.336 Q 73.43 70.449 70.427 68.382 A 16.601 16.601 0 0 1 66.4 64.451 A 23.673 23.673 0 0 1 63.171 57.974 Q 60.9 51.182 60.9 40.901 L 60.9 1.001 L 63.9 1.001 L 63.9 40.901 Q 63.9 47.246 64.718 52.042 A 38.845 38.845 0 0 0 65.3 54.851 Q 66.323 58.98 68.094 61.694 A 13.26 13.26 0 0 0 69.5 63.501 A 17.002 17.002 0 0 0 73.072 66.447 A 14.769 14.769 0 0 0 75.8 67.751 A 20.022 20.022 0 0 0 79.324 68.638 Q 81.559 69.001 84.2 69.001 A 32.254 32.254 0 0 0 87.95 68.795 Q 90.522 68.493 92.6 67.751 A 15.405 15.405 0 0 0 97.802 64.585 A 18.71 18.71 0 0 0 98.9 63.501 Q 101.7 60.501 103.1 54.851 Q 104.158 50.58 104.417 44.796 A 87.386 87.386 0 0 0 104.5 40.901 L 104.5 4.001 L 69.2 4.001 Z" id="1" vector-effect="non-scaling-stroke"/><path d="M 136 71.001 L 126.4 71.001 L 126.4 1.001 L 136 1.001 A 32.149 32.149 0 0 1 159.612 10.789 A 39.801 39.801 0 0 1 160.4 11.601 A 37.039 37.039 0 0 1 167.978 23.192 A 33.972 33.972 0 0 1 170.4 36.001 A 34.392 34.392 0 0 1 160.863 59.902 A 44.366 44.366 0 0 1 160.4 60.401 A 33.217 33.217 0 0 1 147.758 68.972 A 33.477 33.477 0 0 1 136 71.001 Z M 129.4 68.001 L 136 68.001 Q 149.1 68.001 158.25 58.351 Q 167.4 48.701 167.4 36.001 Q 167.4 23.301 158.25 13.651 A 30.493 30.493 0 0 0 146.884 5.915 A 30.463 30.463 0 0 0 136 4.001 L 129.4 4.001 L 129.4 68.001 Z" id="2" vector-effect="non-scaling-stroke"/><path d="M 223.6 16.201 L 214.3 23.201 L 209.4 23.201 L 220.2 15.101 Q 218.1 8.401 214.15 5.701 A 15.118 15.118 0 0 0 208.49 3.381 A 21.013 21.013 0 0 0 204.4 3.001 A 53.405 53.405 0 0 0 201.576 3.071 Q 199.369 3.189 197.65 3.501 Q 194.9 4.001 192.15 5.451 A 8.84 8.84 0 0 0 188.598 8.918 A 11.561 11.561 0 0 0 188 10.101 Q 186.6 13.301 186.6 18.301 A 9.172 9.172 0 0 0 188.738 24.167 A 13.826 13.826 0 0 0 190.65 26.101 A 33.701 33.701 0 0 0 195.997 29.742 A 43.878 43.878 0 0 0 200.5 31.901 Q 206.3 34.301 212.15 36.801 Q 218 39.301 222.05 43.201 A 14.009 14.009 0 0 1 224.746 46.705 A 11.534 11.534 0 0 1 226.1 52.201 A 32.221 32.221 0 0 1 225.664 57.689 Q 225.147 60.672 224.019 63.025 A 14.494 14.494 0 0 1 221.15 67.101 A 14.06 14.06 0 0 1 216.446 70.087 Q 211.7 72.001 204.2 72.001 A 39.38 39.38 0 0 1 198.221 71.576 Q 195.06 71.089 192.491 70.047 A 18.343 18.343 0 0 1 188.8 68.051 Q 183.2 64.101 181.1 55.801 L 183.9 54.601 Q 185.225 59.968 187.801 63.161 A 12.615 12.615 0 0 0 190.75 65.851 A 17.295 17.295 0 0 0 195.409 67.92 Q 197.52 68.528 200.037 68.794 A 39.659 39.659 0 0 0 204.2 69.001 Q 213.557 69.001 218.212 65.486 A 11.937 11.937 0 0 0 218.45 65.301 A 10.802 10.802 0 0 0 221.689 60.827 Q 222.439 58.995 222.79 56.675 A 29.969 29.969 0 0 0 223.1 52.201 A 9.172 9.172 0 0 0 220.962 46.335 A 13.826 13.826 0 0 0 219.05 44.401 A 33.157 33.157 0 0 0 213.924 40.892 A 43.615 43.615 0 0 0 209.15 38.601 Q 203.3 36.201 197.5 33.701 A 35.205 35.205 0 0 1 191.229 30.239 A 29.673 29.673 0 0 1 187.65 27.301 A 14.009 14.009 0 0 1 184.954 23.797 A 11.534 11.534 0 0 1 183.6 18.301 Q 183.6 12.414 185.405 8.516 A 12.516 12.516 0 0 1 188.5 4.301 Q 193.19 0.185 203.47 0.009 A 54.304 54.304 0 0 1 204.4 0.001 A 24.101 24.101 0 0 1 209.702 0.552 Q 213.553 1.42 216.378 3.655 A 15.223 15.223 0 0 1 216.8 4.001 A 18.001 18.001 0 0 1 220.73 8.838 Q 221.956 10.982 222.853 13.658 A 36.493 36.493 0 0 1 223.6 16.201 Z" id="3" vector-effect="non-scaling-stroke"/><path d="M 239.6 40.901 L 239.6 31.101 Q 239.6 16.488 244.188 8.924 A 19.526 19.526 0 0 1 245.1 7.551 A 17.385 17.385 0 0 1 254.631 1.063 Q 257.602 0.2 261.204 0.038 A 37.814 37.814 0 0 1 262.9 0.001 A 31.499 31.499 0 0 1 269.604 0.666 Q 273.67 1.553 276.673 3.62 A 16.601 16.601 0 0 1 280.7 7.551 A 23.673 23.673 0 0 1 283.929 14.028 Q 286.2 20.82 286.2 31.101 L 286.2 40.901 Q 286.2 55.514 281.612 63.079 A 19.526 19.526 0 0 1 280.7 64.451 Q 275.587 71.47 264.596 71.964 A 37.814 37.814 0 0 1 262.9 72.001 A 31.499 31.499 0 0 1 256.196 71.336 Q 252.13 70.449 249.127 68.382 A 16.601 16.601 0 0 1 245.1 64.451 A 23.673 23.673 0 0 1 241.871 57.974 Q 239.6 51.182 239.6 40.901 Z M 242.6 31.101 L 242.6 40.901 Q 242.6 47.246 243.418 52.042 A 38.845 38.845 0 0 0 244 54.851 Q 245.023 58.98 246.794 61.694 A 13.26 13.26 0 0 0 248.2 63.501 A 17.002 17.002 0 0 0 251.772 66.447 A 14.769 14.769 0 0 0 254.5 67.751 A 20.022 20.022 0 0 0 258.024 68.638 Q 260.259 69.001 262.9 69.001 A 32.254 32.254 0 0 0 266.65 68.795 Q 269.222 68.493 271.3 67.751 A 15.405 15.405 0 0 0 276.502 64.585 A 18.71 18.71 0 0 0 277.6 63.501 Q 280.4 60.501 281.8 54.851 Q 282.858 50.58 283.117 44.796 A 87.386 87.386 0 0 0 283.2 40.901 L 283.2 31.101 Q 283.2 24.757 282.382 19.96 A 38.845 38.845 0 0 0 281.8 17.151 Q 280.777 13.022 279.006 10.308 A 13.26 13.26 0 0 0 277.6 8.501 A 17.002 17.002 0 0 0 274.028 5.556 A 14.769 14.769 0 0 0 271.3 4.251 A 20.022 20.022 0 0 0 267.776 3.364 Q 265.541 3.001 262.9 3.001 A 32.254 32.254 0 0 0 259.15 3.207 Q 256.578 3.509 254.5 4.251 A 15.405 15.405 0 0 0 249.298 7.417 A 18.71 18.71 0 0 0 248.2 8.501 Q 245.4 11.501 244 17.151 Q 242.942 21.422 242.683 27.206 A 87.386 87.386 0 0 0 242.6 31.101 Z" id="4" vector-effect="non-scaling-stroke"/><path d="M 311.6 71.001 L 311.6 68.001 L 342.6 68.001 L 306.8 6.101 L 306.8 71.001 L 303.8 71.001 L 303.8 1.001 L 307.3 1.001 L 344.7 65.701 L 344.7 1.001 L 347.7 1.001 L 347.7 71.001 L 311.6 71.001 Z" id="5" vector-effect="non-scaling-stroke"/><path d="M 365.5 71.001 L 365.5 65.201 L 372.1 65.201 L 372.1 71.001 L 365.5 71.001 Z" id="6" vector-effect="non-scaling-stroke"/><path d="M 399.5 71.001 L 389.9 71.001 L 389.9 1.001 L 399.5 1.001 A 32.149 32.149 0 0 1 423.112 10.789 A 39.801 39.801 0 0 1 423.9 11.601 A 37.039 37.039 0 0 1 431.478 23.192 A 33.972 33.972 0 0 1 433.9 36.001 A 34.392 34.392 0 0 1 424.363 59.902 A 44.366 44.366 0 0 1 423.9 60.401 A 33.217 33.217 0 0 1 411.258 68.972 A 33.477 33.477 0 0 1 399.5 71.001 Z M 392.9 68.001 L 399.5 68.001 Q 412.6 68.001 421.75 58.351 Q 430.9 48.701 430.9 36.001 Q 430.9 23.301 421.75 13.651 A 30.493 30.493 0 0 0 410.384 5.915 A 30.463 30.463 0 0 0 399.5 4.001 L 392.9 4.001 L 392.9 68.001 Z" id="7" vector-effect="non-scaling-stroke"/><path d="M 485.1 31.401 L 485.1 34.401 L 455.4 34.401 L 486 4.001 L 452.2 4.001 L 452.2 68.001 L 491 68.001 L 491 71.001 L 449.2 71.001 L 449.2 1.001 L 493.3 1.001 L 462.7 31.401 L 485.1 31.401 Z" id="8" vector-effect="non-scaling-stroke"/><path d="M 508.6 4.001 L 508.6 1.001 L 549.6 1.001 L 524.1 71.101 L 498.6 1.001 L 501.8 1.001 L 524.1 62.301 L 545.3 4.001 L 508.6 4.001 Z" id="9" vector-effect="non-scaling-stroke"/></g></svg>
