<svg width="771.8" height="71.4" viewBox="0 0 771.8 71.4"><g id="svgGroup" stroke-linecap="round" fill-rule="evenodd" font-size="9pt" stroke="#000" stroke-width="0.25mm" fill="none" style="stroke:#000;stroke-width:0.25mm;fill:none"><path d="M 8.6 70 L 8.6 67.1 L 48 67.1 L 48 7.2 L 25.5 55.4 L 3 7.1 L 3 70.1 L 0 70 L 0 0 L 3 0 L 25.5 48.3 L 48 0.1 L 51 0 L 51 70.1 L 8.6 70 Z" id="0" vector-effect="non-scaling-stroke"/><path d="M 75.7 70.1 L 75.7 67.1 L 108.3 67.1 L 87.8 18.8 L 66 70.1 L 62.8 70.1 L 87.8 11.1 L 112.8 70.1 L 75.7 70.1 Z" id="1" vector-effect="non-scaling-stroke"/><path d="M 116.7 12.1 L 161.7 12.1 L 161.7 15.1 L 140.7 15.1 L 140.7 70.1 L 137.7 70.1 L 137.7 15.1 L 116.7 15.1 L 116.7 12.1 Z" id="2" vector-effect="non-scaling-stroke"/><path d="M 165.7 12.1 L 210.7 12.1 L 210.7 15.1 L 189.7 15.1 L 189.7 70.1 L 186.7 70.1 L 186.7 15.1 L 165.7 15.1 L 165.7 12.1 Z" id="3" vector-effect="non-scaling-stroke"/><path d="M 258.2 12.1 L 258.2 70.1 L 255.2 70.1 L 255.2 41.1 L 225.2 41.1 L 225.2 70.1 L 222.2 70.1 L 222.2 12.1 L 225.2 12.1 L 225.2 38.1 L 255.2 38.1 L 255.2 12.1 L 258.2 12.1 Z" id="4" vector-effect="non-scaling-stroke"/><path d="M 313.8 62.2 L 316 64.2 A 16.87 16.87 0 0 1 308.181 69.584 Q 305.345 70.579 301.847 70.921 A 39.564 39.564 0 0 1 298 71.1 A 34.698 34.698 0 0 1 291.53 70.538 Q 287.874 69.843 285.078 68.287 A 15.862 15.862 0 0 1 280.1 64 A 21.406 21.406 0 0 1 277.026 58.091 Q 275.018 52.374 274.743 43.865 A 85.799 85.799 0 0 1 274.7 41.1 A 73.332 73.332 0 0 1 275.104 33.11 Q 276.177 23.359 280.1 18.2 Q 285.5 11.1 298 11.1 A 34.381 34.381 0 0 1 305.047 11.77 Q 313.881 13.623 317.7 20.6 L 293.2 41.1 L 288.5 41.1 L 313.8 20 A 12.993 12.993 0 0 0 308.137 15.765 Q 305.857 14.835 302.962 14.424 A 35.43 35.43 0 0 0 298 14.1 A 39.637 39.637 0 0 0 294.475 14.248 Q 292.756 14.401 291.282 14.715 A 19.381 19.381 0 0 0 289.6 15.15 A 14.367 14.367 0 0 0 284.903 17.663 A 17.99 17.99 0 0 0 283.35 19.05 A 13.398 13.398 0 0 0 281.134 22.041 Q 280.316 23.513 279.696 25.34 A 27.619 27.619 0 0 0 279.1 27.35 Q 278.083 31.31 277.805 36.774 A 85.233 85.233 0 0 0 277.7 41.1 Q 277.7 49.4 279.1 54.85 A 25.336 25.336 0 0 0 280.234 58.29 Q 280.974 60.065 281.933 61.446 A 12.463 12.463 0 0 0 283.35 63.15 Q 286.2 66 289.6 67.05 Q 293 68.1 298 68.1 Q 304.429 68.1 308.632 66.223 A 12.8 12.8 0 0 0 313.8 62.2 Z" id="5" vector-effect="non-scaling-stroke"/><path d="M 324.3 12.1 L 327.5 12.1 L 349.3 63.4 L 364.4 27.9 L 379.4 63.4 L 399.9 15.1 L 335.4 15.1 L 335.4 12.1 L 404.4 12.1 L 379.4 71.1 L 364.4 35.6 L 349.3 71.1 L 324.3 12.1 Z" id="6" vector-effect="non-scaling-stroke"/><path d="M 487.6 0.1 L 487.6 70.1 L 484.6 70.1 L 484.6 35.1 L 448.6 35.1 L 448.6 70.1 L 445.6 70.1 L 445.6 0.1 L 448.6 0.1 L 448.6 32.1 L 484.6 32.1 L 484.6 0.1 L 487.6 0.1 Z" id="8" vector-effect="non-scaling-stroke"/><path d="M 506 12.1 L 509 12.1 L 509 41.1 A 74.297 74.297 0 0 0 509.297 47.997 Q 509.965 55.131 512.134 59.467 A 15.132 15.132 0 0 0 513.75 62.05 Q 518.5 68.1 526.8 68.1 A 18.273 18.273 0 0 0 532.743 67.177 A 15.129 15.129 0 0 0 539.85 62.05 A 17.208 17.208 0 0 0 542.406 57.266 Q 544.6 51.227 544.6 41.1 L 544.6 12.1 L 547.6 12.1 L 547.6 41.1 Q 547.6 71.1 526.8 71.1 A 19.994 19.994 0 0 1 516.513 68.593 Q 508.443 63.861 506.568 50.195 A 67.158 67.158 0 0 1 506 41.1 L 506 12.1 Z" id="9" vector-effect="non-scaling-stroke"/><path d="M 573.2 70.1 L 565.6 70.1 L 565.6 12.1 L 573.2 12.1 Q 588 12.1 596.8 19.9 Q 605.6 27.7 605.6 41.1 Q 605.6 54.5 596.8 62.3 A 29.865 29.865 0 0 1 583.847 68.91 Q 579.285 70.026 573.919 70.095 A 55.338 55.338 0 0 1 573.2 70.1 Z M 568.6 67.1 L 573.2 67.1 A 42.747 42.747 0 0 0 582.096 66.228 Q 587.669 65.042 591.944 62.244 A 25.056 25.056 0 0 0 594.65 60.2 A 22.57 22.57 0 0 0 602.22 46.184 A 32.662 32.662 0 0 0 602.6 41.1 Q 602.6 28.9 594.65 22 A 26.946 26.946 0 0 0 583.603 16.328 Q 578.895 15.1 573.2 15.1 L 568.6 15.1 L 568.6 67.1 Z" id="10" vector-effect="non-scaling-stroke"/><path d="M 653.8 16.4 L 651.8 18.6 A 14.46 14.46 0 0 0 646.641 15.429 Q 644.394 14.593 641.601 14.214 A 37.287 37.287 0 0 0 636.6 13.9 A 28.804 28.804 0 0 0 630.906 14.412 Q 622.076 16.201 621.117 24.246 A 17.354 17.354 0 0 0 621 26.3 A 9.736 9.736 0 0 0 621.754 30.188 Q 622.656 32.284 624.637 33.826 A 11.603 11.603 0 0 0 624.8 33.95 A 24.593 24.593 0 0 0 629.894 36.858 A 32.299 32.299 0 0 0 634.05 38.3 Q 639.5 39.8 644.95 41.45 A 23.488 23.488 0 0 1 651.529 44.57 A 21.329 21.329 0 0 1 654.2 46.75 A 12.201 12.201 0 0 1 657.907 54.511 A 16.808 16.808 0 0 1 658 56.3 Q 658 62.856 652.854 66.885 A 17.06 17.06 0 0 1 652.3 67.3 A 19.036 19.036 0 0 1 646.842 69.95 Q 644.28 70.754 641.163 71.112 A 47.07 47.07 0 0 1 635.8 71.4 Q 630.5 71.4 625.35 70 Q 621.768 69.026 619.468 67.424 A 10.848 10.848 0 0 1 617.7 65.9 L 619.7 63.7 A 15.694 15.694 0 0 0 625.157 66.892 Q 627.541 67.74 630.484 68.111 A 39.371 39.371 0 0 0 635.4 68.4 A 41.887 41.887 0 0 0 640.741 68.083 Q 643.427 67.736 645.615 67.012 A 16.075 16.075 0 0 0 650.05 64.8 A 15.203 15.203 0 0 0 652.607 62.495 Q 655 59.738 655 56.4 A 10.639 10.639 0 0 0 654.179 52.162 A 10.105 10.105 0 0 0 651.2 48.3 A 23.597 23.597 0 0 0 645.502 44.899 A 29.871 29.871 0 0 0 641.95 43.65 Q 636.5 42.1 631.05 40.45 Q 625.6 38.8 621.8 35.3 Q 618 31.8 618 26.1 A 18.215 18.215 0 0 1 618.528 21.572 A 11.95 11.95 0 0 1 623.15 14.65 A 18.967 18.967 0 0 1 630.341 11.495 Q 633.031 10.905 636.151 10.9 A 33.172 33.172 0 0 1 636.2 10.9 A 44.201 44.201 0 0 1 642.279 11.288 Q 649.408 12.281 653.21 15.815 A 12.871 12.871 0 0 1 653.8 16.4 Z" id="11" vector-effect="non-scaling-stroke"/><path d="M 711.3 64 Q 705.9 71.1 693.4 71.1 A 34.698 34.698 0 0 1 686.93 70.538 Q 683.274 69.843 680.478 68.287 A 15.862 15.862 0 0 1 675.5 64 A 21.406 21.406 0 0 1 672.426 58.091 Q 670.418 52.374 670.143 43.865 A 85.799 85.799 0 0 1 670.1 41.1 A 73.332 73.332 0 0 1 670.504 33.11 Q 671.577 23.359 675.5 18.2 Q 680.9 11.1 693.4 11.1 A 34.698 34.698 0 0 1 699.87 11.662 Q 703.526 12.357 706.322 13.913 A 15.862 15.862 0 0 1 711.3 18.2 A 21.406 21.406 0 0 1 714.374 24.109 Q 716.382 29.826 716.657 38.335 A 85.799 85.799 0 0 1 716.7 41.1 A 73.332 73.332 0 0 1 716.296 49.09 Q 715.223 58.841 711.3 64 Z M 701.8 15.15 Q 698.4 14.1 693.4 14.1 A 39.637 39.637 0 0 0 689.875 14.248 Q 688.156 14.401 686.682 14.715 A 19.381 19.381 0 0 0 685 15.15 A 14.367 14.367 0 0 0 680.303 17.663 A 17.99 17.99 0 0 0 678.75 19.05 A 13.398 13.398 0 0 0 676.534 22.041 Q 675.716 23.513 675.096 25.34 A 27.619 27.619 0 0 0 674.5 27.35 Q 673.483 31.31 673.205 36.774 A 85.233 85.233 0 0 0 673.1 41.1 Q 673.1 49.4 674.5 54.85 A 25.336 25.336 0 0 0 675.634 58.29 Q 676.374 60.065 677.333 61.446 A 12.463 12.463 0 0 0 678.75 63.15 Q 681.6 66 685 67.05 Q 688.4 68.1 693.4 68.1 A 39.637 39.637 0 0 0 696.925 67.952 Q 698.644 67.799 700.118 67.485 A 19.381 19.381 0 0 0 701.8 67.05 A 14.367 14.367 0 0 0 706.497 64.537 A 17.99 17.99 0 0 0 708.05 63.15 A 13.398 13.398 0 0 0 710.266 60.159 Q 711.084 58.687 711.704 56.86 A 27.619 27.619 0 0 0 712.3 54.85 Q 713.317 50.89 713.595 45.426 A 85.233 85.233 0 0 0 713.7 41.1 Q 713.7 32.8 712.3 27.35 A 25.336 25.336 0 0 0 711.166 23.91 Q 710.426 22.135 709.467 20.754 A 12.463 12.463 0 0 0 708.05 19.05 Q 705.2 16.2 701.8 15.15 Z" id="12" vector-effect="non-scaling-stroke"/><path d="M 736.2 70.1 L 733.2 70.1 L 733.2 12.1 L 736.2 12.1 L 768.8 64.6 L 768.8 12.1 L 771.8 12.1 L 771.8 70.1 L 768.8 70.1 L 736.2 17.5 L 736.2 70.1 Z" id="13" vector-effect="non-scaling-stroke"/></g></svg>
